<svg xmlns="http://www.w3.org/2000/svg" width="64" height="64" viewBox="0 0 64 64" role="img" aria-label="Log Anonymizer logo">
  <defs>
    <linearGradient id="g" x1="0" y1="0" x2="1" y2="1">
      <stop offset="0" stop-color="#3B82F6"/>
      <stop offset="1" stop-color="#22C55E"/>
    </linearGradient>
  </defs>
  <rect x="8" y="6" width="40" height="52" rx="10" fill="url(#g)"/>
  <rect x="18" y="14" width="30" height="44" rx="10" fill="#0B1220" opacity="0.18"/>
  <g fill="#ffffff" opacity="0.95">
    <rect x="16" y="18" width="24" height="4" rx="2"/>
    <rect x="16" y="28" width="28" height="4" rx="2"/>
    <rect x="16" y="38" width="20" height="4" rx="2"/>
  </g>
  <circle cx="46" cy="46" r="12" fill="#0B1220" opacity="0.92"/>
  <path d="M46 39.5a6.5 6.5 0 0 0-6.5 6.5v5.5c0 .9.7 1.5 1.5 1.5h10c.8 0 1.5-.6 1.5-1.5V46a6.5 6.5 0 0 0-6.5-6.5zm0 2.7a3.8 3.8 0 0 1 3.8 3.8v.6h-7.6V46A3.8 3.8 0 0 1 46 42.2z" fill="#ffffff"/>
</svg>

